{
    "asset" : {
        "generator" : "Khronos glTF Blender I/O v1.5.17",
        "version" : "2.0"
    },
    "scene" : 0,
    "scenes" : [
        {
            "name" : "Scene",
            "nodes" : [
                0
            ]
        }
    ],
    "nodes" : [
        {
            "mesh" : 0,
            "name" : "20Invest",
            "rotation" : [
                0,
                1,
                0,
                7.549790126404332e-08
            ],
            "scale" : [
                1.9688869714736938,
                0.1324455738067627,
                1.9688869714736938
            ],
            "translation" : [
                -0.04633690044283867,
                -0.006342262029647827,
                -0.5059887766838074
            ]
        }
    ],
    "materials" : [
        {
            "doubleSided" : true,
            "name" : "Material.003",
            "pbrMetallicRoughness" : {
                "baseColorFactor" : [
                    1,
                    0.40197768807411194,
                    0.00402473658323288,
                    1
                ],
                "metallicFactor" : 0,
                "roughnessFactor" : 0.5
            }
        }
    ],
    "meshes" : [
        {
            "name" : "Cylinder.003",
            "primitives" : [
                {
                    "attributes" : {
                        "POSITION" : 0,
                        "NORMAL" : 1,
                        "TEXCOORD_0" : 2
                    },
                    "indices" : 3,
                    "material" : 0
                }
            ]
        }
    ],
    "accessors" : [
        {
            "bufferView" : 0,
            "componentType" : 5126,
            "count" : 300,
            "max" : [
                0.9950132966041565,
                1,
                0.9249686002731323
            ],
            "min" : [
                0.0013341307640075684,
                -1,
                0.014884749427437782
            ],
            "type" : "VEC3"
        },
        {
            "bufferView" : 1,
            "componentType" : 5126,
            "count" : 300,
            "type" : "VEC3"
        },
        {
            "bufferView" : 2,
            "componentType" : 5126,
            "count" : 300,
            "type" : "VEC2"
        },
        {
            "bufferView" : 3,
            "componentType" : 5123,
            "count" : 588,
            "type" : "SCALAR"
        }
    ],
    "bufferViews" : [
        {
            "buffer" : 0,
            "byteLength" : 3600,
            "byteOffset" : 0
        },
        {
            "buffer" : 0,
            "byteLength" : 3600,
            "byteOffset" : 3600
        },
        {
            "buffer" : 0,
            "byteLength" : 2400,
            "byteOffset" : 7200
        },
        {
            "buffer" : 0,
            "byteLength" : 1176,
            "byteOffset" : 9600
        }
    ],
    "buffers" : [
        {
            "byteLength" : 10776,
            "uri" : "data:application/octet-stream;base64,"
        }
    ]
}
