{
    "asset" : {
        "generator" : "Khronos glTF Blender I/O v1.5.17",
        "version" : "2.0"
    },
    "scene" : 0,
    "scenes" : [
        {
            "name" : "Scene",
            "nodes" : [
                0
            ]
        }
    ],
    "nodes" : [
        {
            "mesh" : 0,
            "name" : "50save",
            "scale" : [
                1.9688869714736938,
                0.1324455738067627,
                1.9688869714736938
            ],
            "translation" : [
                -0.006617188453674316,
                0,
                -0.43011975288391113
            ]
        }
    ],
    "materials" : [
        {
            "doubleSided" : true,
            "name" : "Material.001",
            "pbrMetallicRoughness" : {
                "baseColorFactor" : [
                    1,
                    0.6795424222946167,
                    0,
                    1
                ],
                "metallicFactor" : 0,
                "roughnessFactor" : 0.5
            }
        }
    ],
    "meshes" : [
        {
            "name" : "Cylinder.001",
            "primitives" : [
                {
                    "attributes" : {
                        "POSITION" : 0,
                        "NORMAL" : 1,
                        "TEXCOORD_0" : 2
                    },
                    "indices" : 3,
                    "material" : 0
                }
            ]
        }
    ],
    "accessors" : [
        {
            "bufferView" : 0,
            "componentType" : 5126,
            "count" : 780,
            "max" : [
                0.9950132966041565,
                1,
                0.9950132966041565
            ],
            "min" : [
                -0.9950132966041565,
                -1,
                -0.014885790646076202
            ],
            "type" : "VEC3"
        },
        {
            "bufferView" : 1,
            "componentType" : 5126,
            "count" : 780,
            "type" : "VEC3"
        },
        {
            "bufferView" : 2,
            "componentType" : 5126,
            "count" : 780,
            "type" : "VEC2"
        },
        {
            "bufferView" : 3,
            "componentType" : 5123,
            "count" : 1548,
            "type" : "SCALAR"
        }
    ],
    "bufferViews" : [
        {
            "buffer" : 0,
            "byteLength" : 9360,
            "byteOffset" : 0
        },
        {
            "buffer" : 0,
            "byteLength" : 9360,
            "byteOffset" : 9360
        },
        {
            "buffer" : 0,
            "byteLength" : 6240,
            "byteOffset" : 18720
        },
        {
            "buffer" : 0,
            "byteLength" : 3096,
            "byteOffset" : 24960
        }
    ],
    "buffers" : [
        {
            "byteLength" : 28056,
            "uri" : "data:application/octet-stream;base64,"
        }
    ]
}
